<svg xmlns="http://www.w3.org/2000/svg" viewBox="0 0 24 32.727">
  <g transform="translate(0)">
    <g transform="translate(0 0)">
      <path fill-rule="evenodd" d="M22.455,27.956V24.571h1.091v3.386h3.273v1.129H23.545V32.47H22.455V29.085H19.182V27.956ZM17.024,32.47H7.179A2.221,2.221,0,0,1,5,30.2V4.265A2.229,2.229,0,0,1,7.191,2h10.9V8.773a2.217,2.217,0,0,0,2.188,2.255h5.448V21.747A6.865,6.865,0,0,0,23,21.185a7.216,7.216,0,0,0-7.091,7.335,7.486,7.486,0,0,0,1.115,3.95ZM19.182,2V8.768A1.113,1.113,0,0,0,20.263,9.9h5.465L19.182,2ZM23,34.727a6.21,6.21,0,1,0-6-6.207,6.106,6.106,0,0,0,6,6.207Z" transform="translate(-5 -2)"/>
    </g>
  </g>
</svg>