<svg xmlns="http://www.w3.org/2000/svg" viewBox="0 0 29.538 24">
  <g transform="translate(0)">
    <g transform="translate(0 0)">
      <path fill-rule="evenodd" d="M0,14.077V8.53A1.842,1.842,0,0,1,1.849,6.692H12l1.846,3.692H24.918a1.846,1.846,0,0,1,1.852,1.842v1.851H0ZM0,15V25.162A1.843,1.843,0,0,0,1.84,27H24.929a1.84,1.84,0,0,0,1.84-1.842V15ZM2.769,5.769V4.838A1.842,1.842,0,0,1,4.618,3H14.769l1.846,3.692H27.687a1.846,1.846,0,0,1,1.852,1.842V21.466a1.84,1.84,0,0,1-1.84,1.842h-.006V12.231A2.77,2.77,0,0,0,24.92,9.462H14.769L12.923,5.769Z" transform="translate(0 -3)"/>
    </g>
  </g>
</svg>