<svg xmlns="http://www.w3.org/2000/svg" viewBox="0 0 32 22.519">
  <g transform="translate(-3 -7)">
    <g transform="translate(3 7)">
      <path fill-rule="evenodd" d="M20.65,25.279A2.968,2.968,0,0,1,21.9,28.333H34.09a16,16,0,1,0-30.179,0H16.1a2.968,2.968,0,0,1,1.254-3.054l1.65-8.8,1.65,8.8ZM19,29.519a1.778,1.778,0,1,0-1.778-1.778A1.778,1.778,0,0,0,19,29.519ZM19,8.185a.584.584,0,0,0-.593.581v3.578a.593.593,0,0,0,.593.581.584.584,0,0,0,.593-.581V8.766A.593.593,0,0,0,19,8.185Zm8.014,2.6a.584.584,0,0,0-.821.122l-2.1,2.895a.593.593,0,0,0,.138.819.584.584,0,0,0,.821-.122l2.1-2.895a.593.593,0,0,0-.138-.819Zm4.953,6.817a.584.584,0,0,0-.736-.384l-3.4,1.106a.593.593,0,0,0-.37.743.584.584,0,0,0,.736.384l3.4-1.106a.593.593,0,0,0,.37-.743Zm0,8.426a.584.584,0,0,0-.37-.743l-3.4-1.106a.593.593,0,0,0-.736.384.584.584,0,0,0,.37.743l3.4,1.106a.593.593,0,0,0,.736-.384Zm-25.932,0a.584.584,0,0,0,.736.384l3.4-1.106a.593.593,0,0,0,.37-.743.584.584,0,0,0-.736-.384L6.4,25.288a.593.593,0,0,0-.37.743Zm0-8.426a.584.584,0,0,0,.37.743l3.4,1.106a.593.593,0,0,0,.736-.384.584.584,0,0,0-.37-.743l-3.4-1.106a.593.593,0,0,0-.736.384Zm4.953-6.817a.584.584,0,0,0-.138.819l2.1,2.895a.593.593,0,0,0,.821.122.584.584,0,0,0,.138-.819l-2.1-2.895a.593.593,0,0,0-.821-.122Z" transform="translate(-3 -7)"/>
    </g>
  </g>
</svg>