<svg xmlns="http://www.w3.org/2000/svg" viewBox="0 0 12 12.431"><defs><style>.a{fill:#bababa;}</style></defs><g transform="translate(-26.4 -10)"><path class="a" d="M32.4,22.431a5.982,5.982,0,0,1-4.243-1.759h0A6,6,0,0,1,26.4,16.424h0a6,6,0,0,1,1.757-4.248h0a.911.911,0,0,1,1.29,0h0a.914.914,0,0,1,0,1.291h0a4.168,4.168,0,0,0-1.224,2.957h0a4.165,4.165,0,0,0,1.224,2.957h0A4.153,4.153,0,0,0,32.4,20.6h0a4.156,4.156,0,0,0,2.953-1.224h0a4.164,4.164,0,0,0,1.223-2.957h0a4.169,4.169,0,0,0-1.223-2.957h0a.914.914,0,0,1,0-1.291h0a.911.911,0,0,1,1.29,0h0A6,6,0,0,1,38.4,16.424h0a6,6,0,0,1-1.757,4.248h0A5.979,5.979,0,0,1,32.4,22.431h0Zm-.912-6.008v-5.51A.913.913,0,0,1,32.4,10h0a.912.912,0,0,1,.912.913h0v5.512a.913.913,0,0,1-.912.913h0a.915.915,0,0,1-.912-.915Z" transform="translate(0)"/></g></svg>