<svg xmlns="http://www.w3.org/2000/svg" viewBox="0 0 22 33.579">
  <g transform="translate(0)">
    <g transform="translate(0 0)">
      <path fill-rule="evenodd" d="M14.105,5.474V4.313A2.32,2.32,0,0,1,16.427,2h1.147a2.315,2.315,0,0,1,2.321,2.313v1.16h2.321A1.154,1.154,0,0,1,23.368,6.63v1.16a1.151,1.151,0,0,1-1.153,1.157H11.784a1.154,1.154,0,0,1-1.153-1.157V6.63a1.151,1.151,0,0,1,1.153-1.157ZM24.526,6.632h1.161A2.314,2.314,0,0,1,28,8.952V33.259a2.311,2.311,0,0,1-2.313,2.32H8.313A2.314,2.314,0,0,1,6,33.259V8.952a2.311,2.311,0,0,1,2.313-2.32H9.474s0,0,0,.006V7.784a2.318,2.318,0,0,0,2.319,2.321H22.207a2.318,2.318,0,0,0,2.319-2.321V6.632ZM17,5.474a.579.579,0,1,0-.579-.579A.579.579,0,0,0,17,5.474ZM15.263,15.895v1.158h9.263V15.895ZM9.474,14.737v3.474h3.474V14.737Zm1.158,1.158v1.158h1.158V15.895ZM9.474,20.526V24h3.474V20.526Zm1.158,1.158v1.158h1.158V21.684Zm4.632,0v1.158h9.263V21.684ZM9.474,26.316v3.474h3.474V26.316Zm1.158,1.158v1.158h1.158V27.474Zm4.632,0v1.158h9.263V27.474Z" transform="translate(-6 -2)"/>
    </g>
  </g>
</svg>