<svg xmlns="http://www.w3.org/2000/svg" viewBox="0 0 51 50.953"><defs>
</defs><path fill="#fff" d="M168.45,530.425h0a2.849,2.849,0,0,1-.574-.708l-2.269-3.934a2.861,2.861,0,0,1,1.048-3.911l.5-.291a9.568,9.568,0,0,1,0-1.89l-.5-.285a2.89,2.89,0,0,1-1.333-1.741,2.855,2.855,0,0,1,.285-2.175l2.269-3.935a2.892,2.892,0,0,1,1.741-1.333,2.866,2.866,0,0,1,2.175.285l.5.29a11.868,11.868,0,0,1,1.628-.926v-.6a.223.223,0,0,1,.014-.068.224.224,0,0,0,.014-.068,13.77,13.77,0,0,0-5.867-2.517V505.2a10.024,10.024,0,1,0-8.6,0v1.417c-9.589,1.839-11.093,9.9-11.391,15.8a24.995,24.995,0,1,1,40.83-5.869l-2.06-3.564-2.222,1.282a9.088,9.088,0,0,0-4.206-2.4v-2.592H175.9v2.592a9.06,9.06,0,0,0-4.206,2.4l-2.223-1.283-2.273,3.935,2.25,1.3a9.035,9.035,0,0,0-.364,2.414,8.9,8.9,0,0,0,.364,2.415l-2.25,1.3,2.273,3.935L171.693,527a8.917,8.917,0,0,0,3.16,2.067,24.912,24.912,0,0,1-6.4,1.355Zm9.722-4.3a5.483,5.483,0,1,1,5.484-5.483A5.489,5.489,0,0,1,178.172,526.124Zm9.007-6.57v0a10.586,10.586,0,0,0-.286-1.329l1.675-.965a25.088,25.088,0,0,1-1.388,2.294Z" transform="translate(-141 -480)"/></svg>